<?xml version="1.0" encoding="UTF-8" standalone="no"?>
<svg
   xmlns:dc="http://purl.org/dc/elements/1.1/"
   xmlns:cc="http://creativecommons.org/ns#"
   xmlns:rdf="http://www.w3.org/1999/02/22-rdf-syntax-ns#"
   xmlns:svg="http://www.w3.org/2000/svg"
   xmlns="http://www.w3.org/2000/svg"
   xmlns:xlink="http://www.w3.org/1999/xlink"
   version="1.1"
   id="svg5786"
   viewBox="0 0 1105 899.99999"
   height="254mm"
   width="311.85556mm">
  <defs
     id="defs5788">
    <pattern
       patternTransform="matrix(17.132153,9.8912527,-6.5961695,11.424901,0,0)"
       id="pattern5638"
       xlink:href="#Strips2_1" />
    <pattern
       patternUnits="userSpaceOnUse"
       width="1.5"
       height="1"
       patternTransform="translate(0,0) scale(10,10)"
       id="Strips2_1">
      <rect
         style="fill:black;stroke:none"
         x="0"
         y="-0.5"
         width="1"
         height="2"
         id="rect4943" />
    </pattern>
    <filter
       id="filter5756"
       style="color-interpolation-filters:sRGB">
      <feFlood
         id="feFlood5758"
         result="flood"
         flood-color="rgb(0,0,0)"
         flood-opacity="0.498039" />
      <feComposite
         id="feComposite5760"
         result="composite1"
         operator="in"
         in2="SourceGraphic"
         in="flood" />
      <feGaussianBlur
         id="feGaussianBlur5762"
         result="blur"
         stdDeviation="2"
         in="composite1" />
      <feOffset
         id="feOffset5764"
         result="offset"
         dy="3"
         dx="3" />
      <feComposite
         id="feComposite5766"
         result="composite2"
         operator="over"
         in2="offset"
         in="SourceGraphic" />
    </filter>
  </defs>
  <metadata
     id="metadata5791">
    <rdf:RDF>
      <cc:Work
         rdf:about="">
        <dc:format>image/svg+xml</dc:format>
        <dc:type
           rdf:resource="http://purl.org/dc/dcmitype/StillImage" />
        <dc:title></dc:title>
      </cc:Work>
    </rdf:RDF>
  </metadata>
  <g
     transform="translate(-102.4736,214.24361)"
     id="layer1">
    <g
       id="g5648"
       transform="matrix(2.5069935,0,0,2.5124435,-1948.3799,-1808.0176)">
      <rect
         y="634.35217"
         x="818.05298"
         height="358.21701"
         width="440.767"
         id="rect5644"
         style="color:#000000;display:inline;overflow:visible;visibility:visible;opacity:0.1;fill:url(#pattern5638);fill-opacity:1;fill-rule:evenodd;stroke:none;stroke-width:5;stroke-linecap:butt;stroke-linejoin:round;stroke-miterlimit:4;stroke-dasharray:none;stroke-dashoffset:0;stroke-opacity:1;marker:none;enable-background:accumulate;" />
      <path
         id="path5642"
         d="m 1074.9969,668.15991 a 35.17857,35.17857 0 0 1 24.8739,43.08564 35.17857,35.17857 0 0 1 -15.583,20.85518 l 77.4571,20.75455 -20.7627,77.48726 a 35.17857,35.17857 0 0 1 25.8626,-3.09736 35.17857,35.17857 0 0 1 24.8739,43.08564 35.17857,35.17857 0 0 1 -43.0837,24.87441 35.17857,35.17857 0 0 1 -20.8576,-15.58161 l -20.754,77.45518 -76.6063,-20.52658 a 35.17857,35.17857 0 0 0 14.4734,-20.11724 35.17857,35.17857 0 0 0 -24.8745,-43.08375 35.17857,35.17857 0 0 0 -43.08558,24.87391 35.17857,35.17857 0 0 0 2.45678,24.65365 l -76.58736,-20.52152 20.52658,-76.60622 a 35.17857,35.17857 0 0 0 20.11724,14.47333 35.17857,35.17857 0 0 0 43.08564,-24.8739 35.17857,35.17857 0 0 0 -24.8758,-43.08615 35.17857,35.17857 0 0 0 -24.65365,2.45678 l 20.52152,-76.58735 77.48723,20.76264 a 35.17857,35.17857 0 0 1 -3.0978,-25.86069 35.17857,35.17857 0 0 1 43.0861,-24.8758 z"
         style="color:#000000;display:inline;overflow:visible;visibility:visible;opacity:1;fill:#2eae9b;fill-opacity:1;fill-rule:evenodd;stroke:#228274;stroke-width:5;stroke-linecap:butt;stroke-linejoin:miter;stroke-miterlimit:4;stroke-dasharray:none;stroke-dashoffset:0;stroke-opacity:1;marker:none;filter:url(#filter5756);enable-background:accumulate" />
      <rect
         y="741.24866"
         x="1333.1833"
         height="102.91632"
         width="132.2016"
         id="rect6652"
         style="color:#000000;display:inline;overflow:visible;visibility:visible;opacity:1;fill:#2a2a2a;fill-opacity:0;fill-rule:evenodd;stroke:none;stroke-width:5;stroke-linecap:butt;stroke-linejoin:round;stroke-miterlimit:4;stroke-dasharray:none;stroke-dashoffset:0;stroke-opacity:1;marker:none;enable-background:accumulate" />
    </g>
  </g>
</svg>
